PathFileType	4	(X/Y/Z)	71_2_25_p1_0-274_filt_butterworth.trc
DataRate	CameraRate	NumFrames	NumMarkers	Units	OrigDataRate	OrigDataStartFrame	OrigNumFrames
44.0	44.0	4	27	m	44.0	0	274
Frame#	Time	RHip			RKnee			RAnkle			RBigToe			RSmallToe			RHeel			LHip			LKnee			LAnkle			LBigToe			LSmallToe			LHeel			Neck			Head			Nose			RShoulder			RElbow			RWrist			RThumb			RIndex			RPinky			LShoulder			LElbow			LWrist			LThumb			LIndex			LPinky			
		X1	Y1	Z1	X2	Y2	Z2	X3	Y3	Z3	X4	Y4	Z4	X5	Y5	Z5	X6	Y6	Z6	X7	Y7	Z7	X8	Y8	Z8	X9	Y9	Z9	X10	Y10	Z10	X11	Y11	Z11	X12	Y12	Z12	X13	Y13	Z13	X14	Y14	Z14	X15	Y15	Z15	X16	Y16	Z16	X17	Y17	Z17	X18	Y18	Z18	X19	Y19	Z19	X20	Y20	Z20	X21	Y21	Z21	X22	Y22	Z22	X23	Y23	Z23	X24	Y24	Z24	X25	Y25	Z25	X26	Y26	Z26	X27	Y27	Z27	
0	0.0	0.3586304620177697	0.3305119846451667	-0.25931810946184275	0.36620223407586733	0.4687545077704066	0.1515782196212135	0.39322594359573576	0.7186209427427667	0.6070962183111948	0.3873985317257704	0.4517556838878607	0.6323801545983321	0.45330627083344177	0.49290211801421674	0.6256793697166009	0.3795333155558088	0.8186514092064947	0.6534820716222858	0.15597387482524863	0.33022752021700913	-0.24630470221854195	0.18356367953985359	0.5334007814300643	0.16461070456062404	0.19235951867484108	0.6840565896872721	0.5867826167353716	0.20979997406842515	0.4594825142607466	0.6284668263889736	0.14445707059352086	0.5409221049099131	0.6345094338021714	0.21025721463145178	0.7803458094655159	0.6592293942925709	0.28020752596146714	0.1727979550905392	-0.8052540421420771	0.278538547763509	0.06167905345183472	-1.0374748903557562	0.26292068807420244	0.04171245563580292	-0.9004084350370165	0.43630897466455304	0.2247939547378534	-0.7234387191296769	0.47797821230843196	0.22073131199080018	-0.42969907081649517	0.3366385931247542	0.18188950383127628	-0.1992075657250408	0.25861162978078756	0.17412418684506503	-0.10400460891910615	0.2594410879900721	0.20300009419938755	-0.08770337480272442	0.2748785873377197	0.2447162208027965	-0.08939561332072726	0.11858212094791458	0.20093825424757783	-0.7247224229533741	0.09390657690480639	0.2651098012573238	-0.44505621185763183	0.1927788196326146	0.20913995201606544	-0.19167281110714518	0.28241891637834887	0.17756402454471332	-0.14012561615717317	0.2758638498902135	0.1897571372340911	-0.0983864983746153	0.23691097831086205	0.1910423248013628	-0.07822259710329568
1	0.0227272727272727	0.3633849504317971	0.3204074308994049	-0.25957612582933837	0.37004883102696196	0.47224322920285744	0.15049408990850116	0.39506925490153455	0.7194621359984705	0.6070065125974884	0.3897749807389302	0.4615445018826211	0.6352653443205911	0.45347724540496903	0.4924850697055213	0.6300171420389931	0.382326796908135	0.8302107176636843	0.6562896114721184	0.15389460888683526	0.32050407937691994	-0.24367510155765554	0.18379989299731664	0.5333157003230631	0.16648883021056904	0.1877721139185778	0.6941353292542888	0.585943740800696	0.20910503440639294	0.46964641162952936	0.6313755295157669	0.14431372720569782	0.5411933661650979	0.6346217716243403	0.2101906213374516	0.7738844525830515	0.6540340289644171	0.28019008164735604	0.17276517951249543	-0.8052358850000791	0.2785992866507664	0.06164330919786972	-1.0374111978269986	0.2628799586441993	0.04162941677664778	-0.9004313048618826	0.43315251082384304	0.22431147333243134	-0.7203825414806556	0.483169056918637	0.22786410334600138	-0.4371753373296784	0.3351995727792927	0.1822147556029451	-0.19916592322367993	0.25240201233520554	0.17256140329442382	-0.1087487001416434	0.25818117535951357	0.19822530318562126	-0.09064226690490959	0.2731826603931402	0.23875768962182942	-0.09338365176506634	0.11845078661759585	0.20050996276203406	-0.7246841634033767	0.09392689619160016	0.26622466617526597	-0.4438011078647719	0.1904633088780643	0.2041407982588088	-0.1928860229412418	0.2782698296696262	0.15995501837190873	-0.14185041426831654	0.27289986971354313	0.17600261730288785	-0.10063769578384603	0.23561608663136346	0.1898082649967704	-0.08012682969488484
2	0.0454545454545454	0.3643832864776382	0.3158857739676629	-0.2596485910796651	0.37175155338382904	0.47422567291227863	0.15075381380775627	0.39627198636636474	0.7193782330381167	0.6081466696606292	0.3898685816915032	0.46179770796658703	0.6353500614986182	0.4533232196939845	0.4923795746865516	0.6330789413541917	0.38256562444365627	0.8314680125363302	0.6565968578935735	0.1529881945789725	0.31632120444311784	-0.24251906485955513	0.18390813819862678	0.5333184398859192	0.16753070242722595	0.18609307949663656	0.6993537997232214	0.5870801317049082	0.20880947728232802	0.4737771400139791	0.6325717067615959	0.14423660349299472	0.5414057655468285	0.6347259424344576	0.21029937063075504	0.7714797236177313	0.651859410513318	0.28032878330461547	0.1722552545222413	-0.8051465577752281	0.2786261117915888	0.06161101664172992	-1.0373643757309128	0.2628859576014986	0.04158639020956135	-0.900409423392138	0.43181430582267033	0.22394650130890215	-0.7201021487951167	0.4852492491841596	0.23060034785586508	-0.44135162875815986	0.33339088081683443	0.18205699970521214	-0.19907266505686289	0.24990097091322422	0.16428676556997737	-0.11260334906368125	0.2566648038276491	0.1915276900898396	-0.09416480017088731	0.27154509195084237	0.23308415218312115	-0.09537861710612475	0.11835305446670474	0.20026591372127658	-0.7246649941974601	0.09368690101861038	0.2654347389509967	-0.44419763211452984	0.18750338539035694	0.19776921567001626	-0.19440072154447122	0.27527637966448415	0.14735411269035908	-0.14292855293299095	0.2707035430658647	0.1665272017295374	-0.10179813343412303	0.23400415143493275	0.1885467776836911	-0.0822311315166758
3	0.0681818181818181	0.3631499974258226	0.3159282055566172	-0.2596224965170526	0.3712439924837927	0.4724229139826078	0.1514766779606332	0.39728329306923965	0.7183816885311644	0.6099668331853177	0.388343498601968	0.45533250572815925	0.6332762769087407	0.45308673610895583	0.49267559730080696	0.634257887041473	0.38173829627801203	0.8283459469953152	0.6558213396386867	0.15299670585979208	0.3164697746935915	-0.24252641240425038	0.183947040511311	0.5334226668469475	0.16810926401324494	0.1865707477941111	0.7009078715752066	0.5896302430862025	0.2091256936359936	0.46839384159372704	0.6310302792517426	0.14422562894371577	0.5415025439490129	0.6347506631855063	0.2104249924918843	0.7746179778895357	0.6527570431063223	0.2801855552682565	0.17264409599103053	-0.8052299926987245	0.2786247531471183	0.06159564637655825	-1.0373279157500432	0.26291583610539104	0.04159321858377471	-0.900354607469637	0.43191866187053046	0.22371075140583394	-0.7218606472129072	0.4851286467063567	0.23024861774413655	-0.44212476228683817	0.33210564370331713	0.18184498196763038	-0.19897312654006816	0.2502802420838117	0.15612971235614967	-0.11434918577809557	0.2554741732063507	0.1863570588407293	-0.09652327057856613	0.2706678240135094	0.22942214055140372	-0.09563593031153644	0.11829074617097825	0.20020665170433008	-0.724675845905964	0.09294604754504687	0.2607972607565765	-0.446144202485517	0.18551562991076098	0.1933967947932046	-0.19543783218636737	0.27400250670791754	0.1422188068114523	-0.14404878169691857	0.2698342483948303	0.16237457057693433	-0.10287154065918805	0.23269382583138315	0.18795921443808705	-0.08354405905651435
